PathFileType	4	(X/Y/Z)	13_2_23_p0_0-398.trc
DataRate	CameraRate	NumFrames	NumMarkers	Units	OrigDataRate	OrigDataStartFrame	OrigNumFrames
59.0	59.0	5	27	m	59.0	0	399
Frame#	Time	RHip			RKnee			RAnkle			RBigToe			RSmallToe			RHeel			LHip			LKnee			LAnkle			LBigToe			LSmallToe			LHeel			Neck			Head			Nose			RShoulder			RElbow			RWrist			RThumb			RIndex			RPinky			LShoulder			LElbow			LWrist			LThumb			LIndex			LPinky			
		X1	Y1	Z1	X2	Y2	Z2	X3	Y3	Z3	X4	Y4	Z4	X5	Y5	Z5	X6	Y6	Z6	X7	Y7	Z7	X8	Y8	Z8	X9	Y9	Z9	X10	Y10	Z10	X11	Y11	Z11	X12	Y12	Z12	X13	Y13	Z13	X14	Y14	Z14	X15	Y15	Z15	X16	Y16	Z16	X17	Y17	Z17	X18	Y18	Z18	X19	Y19	Z19	X20	Y20	Z20	X21	Y21	Z21	X22	Y22	Z22	X23	Y23	Z23	X24	Y24	Z24	X25	Y25	Z25	X26	Y26	Z26	X27	Y27	Z27	
0	0.0	0.3013989146924623	0.8619594490908868	0.6323410909977722	0.3071480197182375	1.0766011377731837	1.0263732190502048	0.28882758119933705	1.2516717985807169	1.380223843639716	0.26719393339843645	1.1152184843585375	1.4616179368631068	0.3286652363908992	1.1339336306941061	1.4519219613948322	0.259373308870505	1.3687028675232529	1.4336634512526132	0.10432376770226802	0.8342255750057932	0.6329092034532451	0.07716316491508786	1.0803552077953784	1.032303707136453	0.10888745654437795	1.2854027435457882	1.4051900920047609	0.11924709662126176	1.1064098005976226	1.4661747444170328	0.05965595748381719	1.1446283721511519	1.45043875009386	0.12697281345714237	1.3729741158214435	1.4329572256898884	0.17916622446133976	0.6695009313410762	0.11596958375131591	0.19001453643318794	0.5209581142049143	-0.0756133538603273	0.18419195036207517	0.5277290479827641	0.046681871902060294	0.3265163625599885	0.6948924803455648	0.19810940072667904	0.38136694397574117	0.8086442883037641	0.4464377091065064	0.25432629493008885	0.6386030660860295	0.4845308689370579	0.17902840185882077	0.5728141248186014	0.4432930418094174	0.16287384500420665	0.5914327802286408	0.46366528990756983	0.18151122333517186	0.5991482484979636	0.52202599938289	0.03524765324277565	0.722330519529799	0.18437491404613793	0.014014924380896028	0.7544559748268213	0.44841886076405435	0.12259582777756739	0.5789162000207286	0.48462177371787063	0.18801673884083092	0.49576285014224414	0.44749565900676475	0.18831172897637535	0.4915898088247603	0.4737180816946481	0.1988555037159481	0.5366354114573293	0.5251121101203335
1	0.01694915254237288	0.3013436375809802	0.8621129029380753	0.63231714823841	0.30606138712417125	1.0730329280804354	1.0220323384874774	0.2886517838461994	1.2518647904976374	1.3800210178231542	0.26308713055722455	1.1147042916950576	1.4613877516685851	0.3283794823256039	1.133681214483695	1.4518656560010021	0.25948827670222996	1.368587998859755	1.4329870640669962	0.10419826467720004	0.834346001099367	0.6328011527816397	0.07556731619253565	1.0787202128112556	1.0314270528171938	0.11016390685122444	1.2834592713106565	1.400546888769941	0.11931349356927666	1.1061562135678742	1.4659515961258838	0.06027316545840126	1.1440015482135784	1.4547798740065696	0.1273318560384576	1.3738032563651152	1.4327569449253001	0.1836887249766164	0.6564688305329722	0.1190382444136679	0.18995270953685703	0.5210156370431053	-0.07554897030325997	0.18416233039640575	0.5278858263697987	0.04673844320978583	0.32664295081321504	0.6937619294973671	0.194416063585635	0.38647829846087833	0.8088175376110067	0.44673355933286146	0.25894527139194845	0.6287705925108215	0.48993413707038225	0.19851531503592448	0.5329487067675921	0.45461643237548155	0.1746099755928819	0.5626743805964202	0.4752235736628504	0.19693533896839913	0.5694993201253213	0.5278038089594982	0.03507219841142506	0.7221381734469003	0.18453772191063744	0.014217192344301558	0.7554884312306775	0.4483834505400498	0.12349975081986579	0.5702559886690084	0.48909445551709185	0.18491133840685228	0.5134747757672988	0.45291538910681317	0.18540656725862156	0.4959931705236074	0.476876538834811	0.19666229430961318	0.5290937319803555	0.5270173055987332
2	0.03389830508474576	0.300937276716402	0.863177520630961	0.6359407936519654	0.3071070888599763	1.076680101726499	1.0264588268022332	0.2886656283683843	1.2518835932462444	1.3800691934164344	0.26746610472449633	1.1160720229298242	1.461198621787476	0.3246042118843046	1.1187136017269688	1.4494372474160857	0.2602311294401869	1.3731153645884615	1.43338921741176	0.10427579451910302	0.8342499245545557	0.632952991329614	0.07620860780677574	1.082251567542698	1.0363402504312134	0.1126983874620105	1.3010099145866267	1.40343941667596	0.11941598417087936	1.1063838590353505	1.4659310043878613	0.060326206622011526	1.1446043126425327	1.4549828988568325	0.12719910938611403	1.3745770046557717	1.43322355618048	0.17942105625752774	0.6698754268115782	0.11583590528889917	0.19016323919429456	0.5207740173606766	-0.07544455322156979	0.18418248585563643	0.5278141972755039	0.04676671740203155	0.33050042500004184	0.7059557403995737	0.19163364229963534	0.3824903895859099	0.810088169452332	0.4468326298366379	0.2598912776070799	0.6326866158855965	0.4975111518264351	0.2007044763859826	0.5411165931520185	0.45171608138822006	0.1775230458708331	0.5874272132941832	0.47577249848659664	0.2012833039225105	0.596973292669849	0.5283340541853426	0.0350642156579763	0.7221688168343093	0.18451700299774573	0.018609357692136397	0.7603251120300941	0.450135801212103	0.12337737703582179	0.5707206766819675	0.48912533277222986	0.18424252184842374	0.5161042324507865	0.4532929534576539	0.18531045916722322	0.4977978783330679	0.4764970749245218	0.1972743788629238	0.5325698240822478	0.5304598755183626
3	0.05084745762711865	0.3010646549831	0.8632280415695357	0.6361733140706208	0.30631625512202276	1.073220952448135	1.0221591577077163	0.28867699072820635	1.251813179104654	1.3800879102646504	0.2674420148927083	1.115934199377905	1.4612716964277317	0.328481947566212	1.1342955260132819	1.45194686697975	0.2601632160282444	1.3731744280202784	1.4335959144641137	0.0985166071839244	0.8499481914437923	0.6357367340907207	0.07629827113207997	1.0825172121236288	1.0362931994552544	0.112792197883847	1.3007038832155755	1.4033246115181701	0.1194319590037171	1.1062854822749195	1.465888258798276	0.06045676380587453	1.1444107207386212	1.4548984135446374	0.12736887374000516	1.3747702415631329	1.433151957788407	0.1839550175929333	0.656685589836555	0.11886547662018858	0.19009719046724224	0.5208912818937022	-0.07547811074869676	0.1841994969852632	0.5278708165353907	0.046745810716713194	0.33039428060725523	0.7071272732912665	0.1953880531975345	0.38238647903191264	0.8121911339188963	0.4541962468785198	0.2559003082814958	0.6453733100535719	0.49649262629832475	0.19022687963355625	0.5821639079923256	0.4526788240864688	0.1652692037256475	0.6090248475919937	0.46732329230822023	0.18013551850622642	0.6305167854488997	0.5293885735593851	0.03507187313305647	0.7222270218919501	0.18452881515942965	0.018965233208642733	0.7604370796932729	0.4498584880287676	0.12722463683268398	0.5729537489038512	0.4888780617366403	0.19241592018457693	0.5050761730400468	0.45756040497847866	0.1900659205307769	0.48707381947030925	0.4849630745775349	0.20147144998957922	0.5335822515711379	0.5304308970303017
4	0.06779661016949153	0.3011393309578193	0.8630204864919517	0.6361598328309473	0.30634806633174894	1.073005786202832	1.0221371316796084	0.2886966767636287	1.2518247882887326	1.3801348265287847	0.2675943500116569	1.116247644065901	1.461183046797935	0.32872727113551053	1.1346650822486588	1.451915499126649	0.2592467239592938	1.3755854992495407	1.4379937105652192	0.09933051719042986	0.8491407709766422	0.6357475450932064	0.07851110006832632	1.0947795179139346	1.0320691863532927	0.10974105042844962	1.283221662268785	1.4008811725780392	0.11942965989755132	1.1061725450824753	1.46585352327028	0.06045066899092794	1.143925104109447	1.454669934386603	0.12722750835943863	1.3750222978855235	1.4334729211738084	0.18405418064751627	0.6567361203113017	0.11880186718505974	0.19009349489567579	0.5211259906212411	-0.07547402191656531	0.18417944572203965	0.5278235160322878	0.04672794502954967	0.33038734862248603	0.7071956832085114	0.19529908965652776	0.3813141466833157	0.8113958891735784	0.45411123867776226	0.24638334498838835	0.6996437310449373	0.4934366707610682	0.17422877170368925	0.6171496157683268	0.4490204678845786	0.15894689545510843	0.6278612920196306	0.4685842898364042	0.1616420685277755	0.672266109892116	0.5271120643391426	0.03513555388198035	0.7222174595126861	0.1844653516044008	0.021029289108637435	0.7708104675237707	0.44561744731799524	0.12730172831263475	0.5730060128403552	0.4887211403623482	0.18958976663596191	0.5030971277538135	0.4548609146782542	0.1902380389295268	0.48694342767719656	0.4848781755726144	0.20140938043675705	0.5336662524250552	0.5305950346453356
